<?xml version="1.0" encoding="iso-8859-1"?>
<!-- Generator: Adobe Illustrator 19.0.0, SVG Export Plug-In . SVG Version: 6.00 Build 0)  -->
<svg version="1.1" id="Capa_1" xmlns="http://www.w3.org/2000/svg" xmlns:xlink="http://www.w3.org/1999/xlink" x="0px" y="0px"
	 viewBox="0 0 512 512" style="enable-background:new 0 0 512 512;" xml:space="preserve">
<g>
	<path style="fill:#51C2E5;" d="M150.103,178.572h31.181h85.321h124.752v124.554C561.888,47.826,207.751,10,207.751,10
		c-10.547,13.074-15.899,26.677-18.348,39.006c-4.901,24.674,1.829,44.24,1.829,44.24l-82.576-39.207
		c0,0-33.028,30.949-34.406,117.656c-1.375,86.702,41.291,134.871,41.291,134.871V178.572H150.103z"/>
	<polygon style="fill:#E7526A;" points="181.284,178.572 152.955,257.201 198.404,263.158 153.826,395.959 287.247,233.45 
		240.207,225.975 266.605,178.572 	"/>
	<path style="fill:#FFD997;" d="M266.605,178.572l-26.398,47.403l47.04,7.475L153.826,395.959l44.578-132.801l-45.449-5.957
		l28.329-78.629h-31.181H115.54v127.994v57.527C115.54,439.942,177.599,502,253.449,502s137.907-62.059,137.907-137.907v-60.968
		V178.572H266.605z"/>
</g>
<path d="M435.724,122.478c-11.255-24.047-30.435-45.477-57.007-63.693c-20.805-14.263-46.203-26.617-75.49-36.722
	C253.743,4.991,210.624,0.25,208.813,0.057c-3.391-0.362-6.713,1.02-8.846,3.665c-21.02,26.057-23.512,53.826-22.051,72.132
	l-64.972-30.849c-3.712-1.762-8.127-1.075-11.127,1.737c-1.475,1.382-36.139,34.881-37.567,124.794
	c-1.24,78.245,31.714,126.308,41.29,138.591v53.966C105.54,445.65,171.892,512,253.449,512s147.907-66.351,147.907-147.907v-57.984
	C448.001,235.226,459.582,173.453,435.724,122.478z M84.249,171.853c0.985-62.044,18.88-93.971,27.136-105.449l75.559,35.876
	c3.622,1.721,7.917,1.091,10.917-1.571c3.001-2.66,4.115-6.875,2.841-10.678c-0.513-1.529-11.768-36.35,11.521-69.367
	c29.368,4.153,166.775,27.794,205.388,110.293c17.677,37.77,12.193,83.523-16.253,136.33v-88.715c0-5.523-4.478-10-10-10H266.605
	h-85.321h-27.998c-13.822-10.371-17.886-24.414-18.807-34.623c-0.496-5.5-5.342-9.555-10.858-9.061
	c-5.501,0.496-9.558,5.357-9.062,10.857c1.101,12.197,5.052,23.342,11.47,32.826h-10.488c-5.522,0-10,4.477-10,10v93.255
	C94.928,250.139,83.543,216.328,84.249,171.853z M231.213,230.347c1.428,2.938,4.199,4.992,7.424,5.504l29.81,4.736l-87.829,106.978
	l27.266-81.226c0.951-2.833,0.585-5.943-0.999-8.478c-1.583-2.536-4.218-4.23-7.182-4.618l-33.129-4.343l21.735-60.328h61.28
	l-18.12,32.538C229.881,223.963,229.786,227.412,231.213,230.347z M253.45,492.001h-0.002c-70.528,0-127.907-57.379-127.907-127.907
	V188.572h24.54c0.005,0,0.009,0,0.014,0s0.011,0,0.017,0h16.94l-23.505,65.239c-1.026,2.849-0.707,6.009,0.869,8.594
	c1.575,2.585,4.237,4.317,7.239,4.711l33.402,4.378l-40.712,121.283c-1.535,4.574,0.415,9.593,4.637,11.93
	c1.525,0.846,3.191,1.252,4.839,1.252c2.914,0,5.778-1.272,7.733-3.654l56.71-69.074v57.878c0,5.522,4.478,10,10,10h40.144
	c5.522,0,10-4.478,10-10c0-5.523-4.478-10-10-10h-30.144V308.87l56.711-69.075c2.274-2.77,2.893-6.544,1.62-9.895
	s-4.24-5.764-7.779-6.326l-32.913-5.23l16.579-29.771h108.875V303.15c0,0.013,0,0.024,0,0.036v60.908
	C381.357,434.622,323.978,492.001,253.45,492.001z"/>
<path d="M314.851,298.013c-7.41,0-13.452,6.045-13.452,13.452c0,7.409,6.042,13.454,13.452,13.454
	c7.409,0,13.452-6.045,13.452-13.454C328.303,304.058,322.26,298.013,314.851,298.013z"/>
<path d="M351.119,123.259l0.313,0.248c1.83,1.434,4.003,2.129,6.161,2.129c2.968,0,5.905-1.315,7.878-3.832
	c3.406-4.348,2.644-10.633-1.703-14.039l-0.251-0.199l-0.02-0.015c-4.335-3.425-10.613-2.678-14.036,1.655
	C346.038,113.541,346.785,119.837,351.119,123.259z"/>
<path d="M275.269,84.365c16.284,6.048,35.32,13.59,53.032,23.666c1.561,0.889,3.26,1.311,4.936,1.311c3.478,0,6.857-1.818,8.7-5.057
	c2.731-4.801,1.054-10.906-3.746-13.637c-18.953-10.783-38.924-18.705-55.96-25.032c-5.174-1.922-10.933,0.714-12.855,5.894
	C267.454,76.686,270.091,82.442,275.269,84.365z"/>
<path d="M124.688,115.964c0.926,0.267,1.858,0.394,2.775,0.394c4.343,0,8.341-2.852,9.604-7.232l0.134-0.46
	c1.551-5.302-1.49-10.854-6.791-12.405c-5.301-1.549-10.855,1.49-12.404,6.792l-0.155,0.533
	C116.32,108.891,119.381,114.433,124.688,115.964z"/>
<path d="M279.072,427.985h-51.249c-5.522,0-10,4.478-10,10s4.478,10,10,10h51.249c5.522,0,10-4.478,10-10
	C289.072,432.463,284.594,427.985,279.072,427.985z"/>
<g>
</g>
<g>
</g>
<g>
</g>
<g>
</g>
<g>
</g>
<g>
</g>
<g>
</g>
<g>
</g>
<g>
</g>
<g>
</g>
<g>
</g>
<g>
</g>
<g>
</g>
<g>
</g>
<g>
</g>
</svg>
