<?xml version="1.0" encoding="iso-8859-1"?>
<!-- Generator: Adobe Illustrator 19.0.0, SVG Export Plug-In . SVG Version: 6.00 Build 0)  -->
<svg version="1.1" id="Layer_1" xmlns="http://www.w3.org/2000/svg" xmlns:xlink="http://www.w3.org/1999/xlink" x="0px" y="0px"
	 viewBox="0 0 512 512" style="enable-background:new 0 0 512 512;" xml:space="preserve">
<g>
	<g>
		<path d="M435.724,122.478c-11.255-24.047-30.435-45.477-57.007-63.693c-20.805-14.263-46.203-26.617-75.49-36.722
			C253.743,4.991,210.624,0.25,208.813,0.057c-3.391-0.362-6.713,1.02-8.846,3.665c-21.02,26.057-23.512,53.826-22.051,72.132
			l-64.972-30.849c-3.712-1.762-8.127-1.075-11.127,1.737c-1.475,1.382-36.139,34.881-37.567,124.794
			c-1.24,78.245,31.714,126.308,41.29,138.591v53.966C105.54,445.65,171.892,512,253.449,512s147.907-66.351,147.907-147.907
			v-57.984C448.001,235.226,459.582,173.453,435.724,122.478z M381.357,303.15c0,0.013,0,0.024,0,0.036v60.908
			c0,70.528-57.379,127.907-127.907,127.907h-0.002c-70.528,0-127.907-57.379-127.907-127.907V188.572h24.54
			c0.005,0,0.009,0,0.014,0s0.011,0,0.017,0h16.94l-23.505,65.239c-1.026,2.849-0.707,6.009,0.869,8.594
			c1.575,2.585,4.237,4.317,7.239,4.711l33.402,4.378l-40.712,121.283c-1.535,4.574,0.415,9.593,4.637,11.93
			c1.525,0.846,3.191,1.252,4.839,1.252c2.914,0,5.778-1.272,7.733-3.654l56.71-69.074v57.878c0,5.522,4.478,10,10,10h40.144
			c5.522,0,10-4.478,10-10c0-5.523-4.478-10-10-10h-30.144V308.87l56.711-69.075c2.274-2.77,2.893-6.544,1.62-9.895
			c-1.273-3.351-4.24-5.764-7.779-6.326l-32.913-5.23l16.579-29.771h108.875V303.15z M231.213,230.347
			c1.428,2.938,4.199,4.992,7.424,5.504l29.81,4.736l-87.829,106.978l27.266-81.226c0.951-2.833,0.585-5.943-0.999-8.478
			c-1.583-2.536-4.218-4.23-7.182-4.618l-33.129-4.343l21.735-60.328h61.28l-18.12,32.538
			C229.881,223.963,229.786,227.412,231.213,230.347z M401.358,267.287v-88.715c0-5.523-4.478-10-10-10H266.605h-85.321h-27.998
			c-13.822-10.371-17.886-24.414-18.807-34.623c-0.496-5.5-5.342-9.555-10.858-9.061c-5.501,0.496-9.558,5.357-9.062,10.857
			c1.101,12.197,5.052,23.342,11.47,32.826h-10.488c-5.522,0-10,4.477-10,10v93.255c-10.613-21.687-21.998-55.498-21.292-99.973
			c0.985-62.044,18.88-93.971,27.136-105.449l75.559,35.876c3.622,1.721,7.917,1.091,10.917-1.571
			c3.001-2.66,4.115-6.875,2.841-10.678c-0.513-1.529-11.768-36.35,11.521-69.367c29.368,4.153,166.775,27.794,205.388,110.293
			C435.288,168.727,429.804,214.48,401.358,267.287z"/>
	</g>
</g>
<g>
	<g>
		<path d="M314.851,298.013c-7.41,0-13.452,6.045-13.452,13.452c0,7.409,6.042,13.454,13.452,13.454
			c7.409,0,13.452-6.045,13.452-13.454C328.303,304.058,322.26,298.013,314.851,298.013z"/>
	</g>
</g>
<g>
	<g>
		<path d="M363.768,107.765l-0.251-0.199l-0.02-0.015c-4.335-3.425-10.613-2.678-14.036,1.655
			c-3.423,4.335-2.676,10.631,1.658,14.053l0.313,0.248c1.83,1.434,4.003,2.129,6.161,2.129c2.968,0,5.905-1.315,7.878-3.832
			C368.877,117.456,368.115,111.171,363.768,107.765z"/>
	</g>
</g>
<g>
	<g>
		<path d="M338.191,90.648c-18.953-10.783-38.924-18.705-55.96-25.032c-5.174-1.922-10.933,0.714-12.855,5.894
			c-1.922,5.176,0.715,10.932,5.893,12.855c16.284,6.048,35.32,13.59,53.032,23.666c1.561,0.889,3.26,1.311,4.936,1.311
			c3.478,0,6.857-1.818,8.7-5.057C344.668,99.484,342.991,93.379,338.191,90.648z"/>
	</g>
</g>
<g>
	<g>
		<path d="M130.41,96.261c-5.301-1.549-10.855,1.49-12.404,6.792l-0.155,0.533c-1.531,5.305,1.53,10.847,6.837,12.378
			c0.926,0.267,1.858,0.394,2.775,0.394c4.343,0,8.341-2.852,9.604-7.232l0.134-0.46C138.752,103.364,135.711,97.812,130.41,96.261z
			"/>
	</g>
</g>
<g>
	<g>
		<path d="M279.072,427.985h-51.249c-5.522,0-10,4.478-10,10c0,5.522,4.478,10,10,10h51.249c5.522,0,10-4.478,10-10
			S284.594,427.985,279.072,427.985z"/>
	</g>
</g>
<g>
</g>
<g>
</g>
<g>
</g>
<g>
</g>
<g>
</g>
<g>
</g>
<g>
</g>
<g>
</g>
<g>
</g>
<g>
</g>
<g>
</g>
<g>
</g>
<g>
</g>
<g>
</g>
<g>
</g>
</svg>
